<svg xmlns="http://www.w3.org/2000/svg" viewBox="0 0 100 100">
  <defs>
    <linearGradient id="grad" x1="0%" y1="0%" x2="100%" y2="100%">
      <stop offset="0%" style="stop-color:#3b82f6;stop-opacity:1" />
      <stop offset="100%" style="stop-color:#8b5cf6;stop-opacity:1" />
    </linearGradient>
  </defs>
  <!-- Cloud shape -->
  <path d="M 30 50 Q 20 50 20 40 Q 20 30 30 30 Q 30 20 40 20 Q 50 20 55 30 Q 65 30 70 35 Q 75 30 85 30 Q 90 30 90 35 Q 90 40 85 40 L 80 40 Q 80 50 70 50 L 30 50 Z" fill="url(#grad)"/>
  <!-- Star in center -->
  <path d="M 50 35 L 52 42 L 59 42 L 53 46 L 55 53 L 50 48 L 45 53 L 47 46 L 41 42 L 48 42 Z" fill="white" opacity="0.9"/>
</svg>

