<svg xmlns="http://www.w3.org/2000/svg" viewBox="0 0 100 100">
  <!-- Black background -->
  <rect width="100" height="100" fill="#000000"/>
  
  <!-- White circular outline (thick) -->
  <circle cx="50" cy="50" r="42" fill="none" stroke="#ffffff" stroke-width="4" stroke-linecap="round"/>
  
  <!-- Cloud shape (lower-left portion, organic/rounded) -->
  <path d="M 20 65 
           Q 15 65 15 60 
           Q 15 55 20 55 
           Q 20 50 25 50 
           Q 28 50 30 52 
           Q 32 50 35 50 
           Q 38 50 40 52 
           Q 42 50 45 50 
           Q 48 50 50 52 
           Q 52 50 55 50 
           Q 58 50 60 52 
           Q 62 50 65 50 
           Q 68 50 70 52 
           Q 72 50 75 50 
           Q 78 50 78 53 
           Q 78 55 75 55 
           L 73 55 
           Q 73 60 68 60 
           L 32 60 
           Q 28 63 20 65 Z" 
        fill="#ffffff"/>
  
  <!-- Star/Arrow pointing up and slightly right (emerging from cloud upper-right) -->
  <path d="M 62 52 
           L 68 32 
           L 74 52 
           L 72 52 
           L 72 48 
           L 64 48 
           L 64 52 Z" 
        fill="#ffffff"/>
</svg>
