<svg xmlns="http://www.w3.org/2000/svg" viewBox="0 0 100 100">
  <!-- Rounded square background with accent color (cyan/teal: hsl(185, 70%, 50%)) -->
  <rect width="100" height="100" fill="hsl(185, 70%, 50%)" rx="12"/>
  
  <!-- Sparkles icon - main star in center -->
  <g fill="hsl(240, 10%, 3.9%)" opacity="0.95">
    <!-- Main 8-pointed star -->
    <path d="M 50 25 L 52 40 L 67 40 L 56 48 L 60 63 L 50 55 L 40 63 L 44 48 L 33 40 L 48 40 Z"/>
    
    <!-- Small sparkles around the main star -->
    <circle cx="28" cy="28" r="1.5" opacity="0.9"/>
    <circle cx="72" cy="28" r="1.5" opacity="0.9"/>
    <circle cx="28" cy="72" r="1.5" opacity="0.9"/>
    <circle cx="72" cy="72" r="1.5" opacity="0.9"/>
    
    <!-- Tiny sparkles in corners -->
    <path d="M 20 20 L 20.5 21.5 L 22 21.5 L 20.5 23 L 21 24.5 L 20 23 L 19 24.5 L 19.5 23 L 18 21.5 L 19.5 21.5 Z" opacity="0.7"/>
    <path d="M 80 20 L 80.5 21.5 L 82 21.5 L 80.5 23 L 81 24.5 L 80 23 L 79 24.5 L 79.5 23 L 78 21.5 L 79.5 21.5 Z" opacity="0.7"/>
    <path d="M 20 80 L 20.5 78.5 L 22 78.5 L 20.5 77 L 21 75.5 L 20 77 L 19 75.5 L 19.5 77 L 18 78.5 L 19.5 78.5 Z" opacity="0.7"/>
    <path d="M 80 80 L 80.5 78.5 L 82 78.5 L 80.5 77 L 81 75.5 L 80 77 L 79 75.5 L 79.5 77 L 78 78.5 L 79.5 78.5 Z" opacity="0.7"/>
  </g>
</svg>
